<svg width="299" height="299" viewBox="0 0 299 299" fill="none" xmlns="http://www.w3.org/2000/svg">
<path d="M70.9024 214.111C46.4693 195.206 44.855 158.889 67.5143 137.891L89.2048 117.791C95.7686 111.709 103.845 107.499 112.59 105.602L201.515 86.3114C216.925 82.9686 233.009 87.0907 244.911 97.4334L254.251 105.549C277.47 125.726 277.137 161.884 253.55 181.63L226.231 204.5L174.492 245.061C157.123 258.678 132.88 259.296 114.84 246.581L92.7311 231L70.9024 214.111Z" fill="url(#paint0_linear_402_16)"/>
<path d="M46.6712 194.611C22.2382 175.706 20.6238 139.389 43.2832 118.391L75 89L120.872 50.8724C139.023 35.786 165.252 35.4465 183.787 50.0582L220.5 79L243.492 96.4479C268.27 115.251 270.049 151.872 247.212 172.989L218 200L172.402 240.861C154.262 257.116 127.048 257.935 107.964 242.799L68.5 211.5L46.6712 194.611Z" fill="url(#paint1_linear_402_16)"/>
<path d="M107.635 114.444L96.5101 116.048L96.1104 121.966L104.741 120.721L105.637 126.937L95.7397 128.364L95.0912 138.723L87.8329 138.274L89.726 110.479L106.71 108.03L107.635 114.444ZM109.774 125.573C108.804 119.691 113.311 113.949 119.465 113.183C125.584 112.179 131.569 116.409 132.301 122.325C133.27 128.207 128.729 133.994 122.576 134.76C116.456 135.763 110.505 131.489 109.774 125.573ZM125.61 123.289C125.422 121.983 124.826 120.937 123.784 120.158C122.782 119.373 121.65 119.092 120.344 119.28C119.037 119.468 118.031 120.058 117.252 121.1C116.512 122.136 116.237 123.307 116.425 124.614C116.613 125.92 117.209 126.966 118.211 127.751C119.253 128.53 120.385 128.812 121.691 128.623C122.998 128.435 124.004 127.845 124.743 126.809C125.523 125.767 125.798 124.596 125.61 123.289ZM135.175 121.91C134.206 116.029 138.713 110.287 144.866 109.521C150.986 108.517 156.971 112.746 157.702 118.663C158.672 124.544 154.131 130.332 147.977 131.098C141.858 132.101 135.907 127.827 135.175 121.91ZM151.011 119.627C150.823 118.321 150.228 117.275 149.186 116.496C148.184 115.711 147.052 115.429 145.745 115.618C144.439 115.806 143.433 116.396 142.653 117.437C141.914 118.474 141.638 119.645 141.826 120.951C142.015 122.258 142.61 123.304 143.612 124.089C144.654 124.868 145.786 125.149 147.092 124.961C148.399 124.773 149.405 124.183 150.145 123.147C150.924 122.105 151.2 120.934 151.011 119.627ZM184.441 95.1259L182.422 125.97L177.115 125.603C175.85 126.634 174.329 127.298 172.547 127.555C166.982 128.479 161.308 124.164 160.577 118.248C159.619 112.445 163.837 106.664 169.436 105.978C172.168 105.584 174.828 106.373 176.889 108.056L177.743 94.6368L184.441 95.1259ZM176.413 115.965C176.224 114.658 175.629 113.613 174.587 112.833C173.585 112.048 172.453 111.767 171.147 111.955C169.84 112.144 168.834 112.733 168.055 113.775C167.315 114.811 167.039 115.983 167.228 117.289C167.416 118.596 168.011 119.641 169.014 120.426C170.056 121.206 171.187 121.487 172.494 121.299C173.8 121.11 174.807 120.521 175.546 119.485C176.326 118.443 176.601 117.271 176.413 115.965Z" fill="white"/>
<path d="M93.0272 158.953C94.3047 166.973 88.7983 173.91 80.5067 174.984L66.4916 177.005L68.3554 148.447L76.5111 147.271C84.7741 145.999 91.9987 150.979 93.0272 158.953ZM85.9123 160.06C85.3016 155.824 81.6156 153.243 77.2606 153.871L75.0436 154.191L74.0561 169.206L79.3612 168.441C83.7162 167.813 86.5231 164.296 85.9123 160.06ZM117.171 159.19C117.308 160.141 117.315 161.029 117.237 161.889C117.159 162.749 117.047 163.371 116.985 163.784L102.253 162.796C103.156 165.414 105.658 166.791 108.469 166.386C109.815 166.192 110.991 165.659 111.952 164.752L115.249 168.844C113.707 170.198 111.473 171.247 108.979 171.607C102.781 172.622 96.9542 168.369 96.2111 162.374C95.2532 156.571 99.4375 150.836 105.195 150.127C110.845 149.231 116.48 153.551 117.171 159.19ZM102.259 158.35L111.152 158.927C110.43 156.444 108.352 154.925 105.977 155.268C104.235 155.519 102.867 156.686 102.259 158.35ZM120.587 168.478L122.623 137.47L129.361 137.954L127.325 168.962L120.587 168.478ZM132.417 166.772L133.907 145.987L140.684 146.465L139.195 167.25L132.417 166.772ZM140.861 143.489L134.089 143.051L134.494 136.89L141.272 137.368L140.861 143.489ZM161.123 141.982L166.914 144.866L157.159 164.66L151.145 164.436L143.462 146.186L149.444 143.666L154.403 155.641L161.123 141.982ZM189.896 148.705C190.033 149.655 190.04 150.544 189.962 151.403C189.883 152.263 189.771 152.886 189.709 153.299L174.978 152.311C175.881 154.929 178.383 156.306 181.194 155.901C182.54 155.707 183.716 155.173 184.676 154.267L187.974 158.358C186.431 159.712 184.198 160.762 181.704 161.121C175.505 162.136 169.679 157.884 168.936 151.889C167.978 146.086 172.162 140.35 177.92 139.641C183.57 138.746 189.204 143.066 189.896 148.705ZM174.983 147.865L183.877 148.442C183.155 145.959 181.077 144.44 178.702 144.783C176.96 145.034 175.592 146.201 174.983 147.865ZM205.559 136.707C205.995 136.645 206.351 136.593 206.594 136.598L206.966 143.941C206.287 143.998 205.767 144.033 205.489 144.073C202.441 144.512 200.644 146.064 200.394 149.657L199.812 158.511L193.074 158.027L194.444 137.259L200.644 137.658L200.545 139.208C201.844 137.849 203.5 137.004 205.559 136.707ZM226.144 132.608L231.895 135.497L217.621 164.026L211.869 161.137L215.881 153.082L208.891 136.833L214.782 134.246L219.582 145.678L226.144 132.608Z" fill="white"/>
<path d="M100.04 180.843C142.184 174.018 157.319 172.599 193.674 170.022" stroke="white" stroke-width="2" stroke-linecap="round"/>
<defs>
<linearGradient id="paint0_linear_402_16" x1="71" y1="72.5" x2="224.5" y2="218.5" gradientUnits="userSpaceOnUse">
<stop stop-color="#FEB220"/>
<stop offset="1" stop-color="#D84719"/>
</linearGradient>
<linearGradient id="paint1_linear_402_16" x1="75" y1="84.5" x2="212.5" y2="205.5" gradientUnits="userSpaceOnUse">
<stop stop-color="#FEB220"/>
<stop offset="1" stop-color="#F56C1E"/>
</linearGradient>
</defs>
</svg>
