<svg width="299" height="299" viewBox="0 0 299 299" fill="none" xmlns="http://www.w3.org/2000/svg">
<path d="M70.9024 214.111C46.4693 195.206 44.855 158.889 67.5143 137.891L89.2048 117.791C95.7686 111.709 103.845 107.499 112.59 105.602L201.515 86.3114C216.925 82.9686 233.009 87.0907 244.911 97.4334L254.251 105.549C277.47 125.726 277.137 161.884 253.55 181.63L226.231 204.5L174.492 245.061C157.123 258.678 132.88 259.296 114.84 246.581L92.7311 231L70.9024 214.111Z" fill="url(#paint0_linear_402_16)"/>
<path d="M46.6712 194.611C22.2382 175.706 20.6238 139.389 43.2832 118.391L75 89L120.872 50.8724C139.023 35.786 165.252 35.4465 183.787 50.0582L220.5 79L243.492 96.4479C268.27 115.251 270.049 151.872 247.212 172.989L218 200L172.402 240.861C154.262 257.116 127.048 257.935 107.964 242.799L68.5 211.5L46.6712 194.611Z" fill="url(#paint1_linear_402_16)"/>
<path d="M107.635 114.444L96.5101 116.048L96.1104 121.966L104.741 120.721L105.637 126.937L95.7397 128.364L95.0912 138.723L87.8329 138.274L89.7259 110.479L106.71 108.03L107.635 114.444ZM109.774 125.573C108.804 119.691 113.311 113.949 119.465 113.183C125.584 112.179 131.569 116.409 132.301 122.325C133.27 128.207 128.729 133.994 122.576 134.76C116.456 135.763 110.505 131.489 109.774 125.573ZM125.61 123.289C125.422 121.983 124.826 120.937 123.784 120.158C122.782 119.373 121.65 119.092 120.344 119.28C119.037 119.468 118.031 120.058 117.252 121.1C116.512 122.136 116.237 123.307 116.425 124.614C116.613 125.92 117.209 126.966 118.211 127.751C119.253 128.53 120.385 128.812 121.691 128.623C122.998 128.435 124.004 127.845 124.743 126.809C125.523 125.767 125.798 124.596 125.61 123.289ZM135.175 121.91C134.206 116.029 138.713 110.287 144.866 109.521C150.986 108.517 156.97 112.746 157.702 118.663C158.672 124.544 154.131 130.332 147.977 131.098C141.858 132.101 135.907 127.827 135.175 121.91ZM151.011 119.627C150.823 118.321 150.228 117.275 149.186 116.496C148.184 115.711 147.052 115.429 145.745 115.618C144.439 115.806 143.433 116.396 142.653 117.437C141.914 118.474 141.638 119.645 141.826 120.951C142.015 122.258 142.61 123.304 143.612 124.089C144.654 124.868 145.786 125.149 147.092 124.961C148.399 124.773 149.405 124.183 150.145 123.147C150.924 122.105 151.2 120.934 151.011 119.627ZM184.441 95.126L182.422 125.97L177.115 125.603C175.85 126.634 174.329 127.298 172.547 127.555C166.982 128.479 161.308 124.164 160.577 118.248C159.619 112.445 163.837 106.664 169.436 105.978C172.168 105.584 174.828 106.373 176.889 108.056L177.743 94.6368L184.441 95.126ZM176.413 115.965C176.224 114.658 175.629 113.613 174.587 112.833C173.585 112.048 172.453 111.767 171.147 111.955C169.84 112.144 168.834 112.733 168.055 113.775C167.315 114.811 167.039 115.983 167.228 117.289C167.416 118.596 168.011 119.641 169.014 120.426C170.056 121.206 171.187 121.487 172.494 121.299C173.8 121.11 174.807 120.521 175.546 119.485C176.326 118.443 176.601 117.271 176.413 115.965Z" fill="white"/>
<path d="M99.1939 158.064C100.471 166.084 94.965 173.021 86.6734 174.095L72.6583 176.116L74.5221 147.558L82.6778 146.382C90.9408 145.11 98.1654 150.09 99.1939 158.064ZM92.079 159.171C91.4683 154.935 87.7823 152.354 83.4274 152.982L81.2103 153.302L80.2228 168.316L85.5279 167.552C89.8829 166.924 92.6898 163.407 92.079 159.171ZM123.338 158.301C123.475 159.252 123.482 160.14 123.404 161C123.326 161.86 123.213 162.482 123.152 162.895L108.42 161.907C109.323 164.525 111.825 165.902 114.636 165.497C115.982 165.303 117.158 164.77 118.118 163.863L121.416 167.954C119.873 169.308 117.64 170.358 115.146 170.717C108.947 171.732 103.121 167.48 102.378 161.485C101.42 155.682 105.604 149.947 111.362 149.238C117.012 148.342 122.646 152.662 123.338 158.301ZM108.425 157.461L117.319 158.038C116.597 155.555 114.519 154.036 112.144 154.379C110.402 154.63 109.034 155.797 108.425 157.461ZM126.753 167.589L128.789 136.581L135.527 137.065L133.491 168.073L126.753 167.589ZM138.584 165.883L140.62 134.875L147.358 135.359L145.322 166.367L138.584 165.883ZM150.415 164.178L151.904 143.392L158.682 143.87L157.192 164.655L150.415 164.178ZM158.859 140.894L152.087 140.456L152.492 134.295L159.269 134.773L158.859 140.894ZM179.12 139.388L184.911 142.271L175.156 162.065L169.143 161.841L161.46 143.591L167.441 141.071L172.401 153.046L179.12 139.388ZM207.893 146.11C208.03 147.061 208.037 147.949 207.959 148.809C207.881 149.669 207.769 150.291 207.707 150.704L192.975 149.716C193.878 152.334 196.38 153.711 199.191 153.306C200.537 153.112 201.713 152.579 202.674 151.672L205.971 155.764C204.429 157.118 202.196 158.167 199.701 158.527C193.503 159.541 187.676 155.289 186.933 149.294C185.975 143.491 190.16 137.756 195.917 137.047C201.567 136.151 207.202 140.471 207.893 146.11ZM192.981 145.27L201.874 145.847C201.152 143.364 199.074 141.845 196.699 142.188C194.957 142.439 193.59 143.606 192.981 145.27ZM223.557 134.112C223.992 134.05 224.348 133.998 224.592 134.004L224.963 141.346C224.284 141.403 223.764 141.438 223.487 141.478C220.438 141.917 218.642 143.47 218.392 147.062L217.809 155.916L211.071 155.432L212.442 134.664L218.642 135.064L218.542 136.614C219.841 135.254 221.498 134.409 223.557 134.112Z" fill="white"/>
<path d="M100.04 180.843C142.184 174.018 157.319 172.599 193.674 170.022" stroke="white" stroke-width="2" stroke-linecap="round"/>
<defs>
<linearGradient id="paint0_linear_402_16" x1="71" y1="72.5" x2="224.5" y2="218.5" gradientUnits="userSpaceOnUse">
<stop stop-color="#FEB220"/>
<stop offset="1" stop-color="#D84719"/>
</linearGradient>
<linearGradient id="paint1_linear_402_16" x1="75" y1="84.5" x2="212.5" y2="205.5" gradientUnits="userSpaceOnUse">
<stop stop-color="#FEB220"/>
<stop offset="1" stop-color="#F56C1E"/>
</linearGradient>
</defs>
</svg>
