<svg width="157" height="90" viewBox="0 0 157 90" fill="none" xmlns="http://www.w3.org/2000/svg">
<path d="M80.943 10C80.943 9.72386 80.7192 9.5 80.443 9.5C80.1669 9.5 79.943 9.72386 79.943 10H80.943ZM79.943 80C79.943 80.2761 80.1669 80.5 80.443 80.5C80.7192 80.5 80.943 80.2761 80.943 80H79.943ZM79.943 10V80H80.943V10H79.943Z" fill="black"/>
<path d="M29.3957 62.2918C22.8625 57.2863 22.4023 47.6071 28.4312 42.0047L31.8494 38.8283C33.5409 37.2565 35.6126 36.1524 37.8606 35.625L57.2788 31.0683C61.2958 30.1257 65.5211 31.1648 68.6427 33.8628C74.6348 39.042 74.5768 48.3514 68.52 53.455L63.1965 57.9407L52.0495 66.7589C47.456 70.3923 41.0255 70.5908 36.2165 67.2476L32.4113 64.6022L29.3957 62.2918Z" fill="url(#paint0_linear_412_92)"/>
<path d="M22.4063 57.0737C15.9114 52.0486 15.4823 42.3945 21.5057 36.8129L27.7325 31.0426L37.6635 22.7883C42.4884 18.778 49.4606 18.6878 54.3875 22.5719L62.1336 28.6783L66.1737 31.744C72.7599 36.7423 73.233 46.4771 67.1625 52.0904L61.5426 57.2868L51.6845 66.1209C46.8625 70.4419 39.6284 70.6594 34.5555 66.6358L26.1957 60.0057L22.4063 57.0737Z" fill="url(#paint1_linear_412_92)"/>
<path d="M36.0064 37.7814L33.542 38.1367L33.4535 39.4475L35.3653 39.1719L35.5639 40.5488L33.3713 40.8649L33.2277 43.1595L31.6198 43.0601L32.0392 36.9031L35.8016 36.3606L36.0064 37.7814ZM36.4802 40.2466C36.2654 38.9436 37.2638 37.6717 38.6269 37.502C39.9825 37.2797 41.3082 38.2166 41.4703 39.5271C41.685 40.8301 40.6792 42.112 39.316 42.2817C37.9605 42.504 36.6422 41.5571 36.4802 40.2466ZM39.9882 39.7408C39.9464 39.4514 39.8146 39.2197 39.5838 39.0471C39.3618 38.8732 39.1111 38.8109 38.8217 38.8526C38.5322 38.8944 38.3093 39.025 38.1367 39.2558C37.9728 39.4853 37.9118 39.7447 37.9535 40.0342C37.9953 40.3236 38.1271 40.5552 38.3492 40.7291C38.5799 40.9018 38.8307 40.9641 39.12 40.9224C39.4095 40.8806 39.6323 40.75 39.7962 40.5205C39.9688 40.2897 40.0299 40.0302 39.9882 39.7408ZM42.1071 39.4353C41.8923 38.1324 42.8907 36.8604 44.2538 36.6907C45.6094 36.4685 46.9351 37.4053 47.0972 38.7159C47.3119 40.0188 46.3061 41.3008 44.9429 41.4705C43.5874 41.6927 42.2691 40.7459 42.1071 39.4353ZM45.6151 38.9295C45.5733 38.6402 45.4415 38.4085 45.2107 38.2358C44.9887 38.0619 44.7379 37.9996 44.4486 38.0413C44.1591 38.0831 43.9362 38.2137 43.7636 38.4445C43.5997 38.674 43.5387 38.9335 43.5804 39.2229C43.6222 39.5123 43.754 39.744 43.9761 39.9179C44.2068 40.0905 44.4575 40.1528 44.7469 40.1111C45.0364 40.0693 45.2592 39.9387 45.4231 39.7092C45.5958 39.4784 45.6568 39.2189 45.6151 38.9295ZM53.0204 33.5021L52.5731 40.3345L51.3976 40.2533C51.1172 40.4818 50.7803 40.6288 50.3857 40.6857C49.1529 40.8903 47.896 39.9346 47.7339 38.6241C47.5218 37.3386 48.4562 36.058 49.6966 35.906C50.3017 35.8188 50.8909 35.9935 51.3475 36.3663L51.5366 33.3937L53.0204 33.5021ZM51.242 38.1183C51.2002 37.8289 51.0684 37.5972 50.8376 37.4246C50.6156 37.2507 50.3648 37.1884 50.0754 37.2301C49.786 37.2718 49.5632 37.4024 49.3905 37.6332C49.2266 37.8628 49.1656 38.1222 49.2073 38.4116C49.249 38.701 49.3809 38.9327 49.6029 39.1066C49.8337 39.2792 50.0844 39.3415 50.3738 39.2998C50.6633 39.2581 50.8862 39.1275 51.05 38.898C51.2226 38.6672 51.2837 38.4077 51.242 38.1183Z" fill="white"/>
<path d="M34.5046 47.6471C34.7876 49.4237 33.5678 50.9603 31.7311 51.1983L28.6265 51.6459L29.0394 45.3197L30.846 45.0592C32.6764 44.7774 34.2768 45.8806 34.5046 47.6471ZM32.9285 47.8923C32.7932 46.9539 31.9768 46.3823 31.012 46.5214L30.5209 46.5922L30.3022 49.9182L31.4774 49.7488C32.4421 49.6097 33.0638 48.8307 32.9285 47.8923ZM39.853 47.6997C39.8834 47.9101 39.8849 48.1069 39.8676 48.2974C39.8503 48.4879 39.8254 48.6257 39.8117 48.7173L36.5483 48.4984C36.7483 49.0783 37.3026 49.3834 37.9253 49.2936C38.2235 49.2506 38.484 49.1325 38.6967 48.9317L39.4272 49.838C39.0855 50.138 38.5908 50.3704 38.0383 50.4501C36.6652 50.6749 35.3746 49.733 35.2099 48.4049C34.9978 47.1195 35.9246 45.8489 37.2001 45.6919C38.4517 45.4935 39.6998 46.4505 39.853 47.6997ZM36.5496 47.5135L38.5196 47.6413C38.3598 47.0914 37.8994 46.7549 37.3732 46.8307C36.9873 46.8864 36.6844 47.1449 36.5496 47.5135ZM40.6096 49.7571L41.0605 42.8883L42.5531 42.9953L42.1021 49.8642L40.6096 49.7571ZM43.2303 49.3792L43.6813 42.5104L45.1739 42.6175L44.7229 49.4863L43.2303 49.3792ZM45.8511 49.0014L46.1809 44.3971L47.6823 44.5029L47.3524 49.1072L45.8511 49.0014ZM47.7215 43.8437L46.2215 43.7466L46.3112 42.3819L47.8125 42.4877L47.7215 43.8437ZM52.2099 43.5099L53.4926 44.1486L51.3317 48.5335L49.9996 48.4838L48.2977 44.441L49.6227 43.8829L50.7213 46.5356L52.2099 43.5099ZM58.5835 44.9992C58.6141 45.2096 58.6154 45.4064 58.5982 45.5969C58.5809 45.7874 58.5561 45.9252 58.5423 46.0167L55.2789 45.7979C55.4792 46.3778 56.0334 46.6829 56.6559 46.5931C56.954 46.5501 57.2146 46.4319 57.4272 46.2312L58.1578 47.1375C57.8162 47.4374 57.3213 47.6699 56.7689 47.7495C55.3959 47.9744 54.1052 47.0325 53.9405 45.7044C53.7284 44.419 54.6551 43.1484 55.9306 42.9914C57.1822 42.793 58.4303 43.75 58.5835 44.9992ZM55.2803 44.8129L57.2504 44.9407C57.0905 44.3908 56.6302 44.0543 56.1039 44.1302C55.718 44.1858 55.4149 44.4444 55.2803 44.8129ZM62.0534 42.3414C62.15 42.3275 62.2289 42.3161 62.2825 42.3173L62.3649 43.9437C62.2147 43.9564 62.0995 43.9641 62.0379 43.9729C61.3627 44.0703 60.9644 44.4142 60.909 45.21L60.7801 47.1712L59.2875 47.0641L59.591 42.4636L60.9644 42.552L60.9427 42.8954C61.2303 42.5943 61.5971 42.4071 62.0534 42.3414Z" fill="white"/>
<path d="M34.9915 53.8419C43.8523 51.1726 47.8396 52.0587 56.2572 51.1726" stroke="white" stroke-linecap="round"/>
<path d="M99.6969 43L102.715 28.7227H108.554L108.115 30.9004H104.756L103.877 35.0215H106.992L106.513 37.1992H103.418L102.197 43H99.6969ZM110.732 43.1953C110.094 43.1953 109.547 43.0553 109.091 42.7754C108.642 42.4954 108.297 42.0918 108.056 41.5645C107.815 41.0371 107.695 40.4023 107.695 39.6602C107.695 39.0938 107.75 38.4688 107.861 37.7852C107.978 37.0951 108.157 36.4049 108.398 35.7148C108.639 35.0247 108.955 34.3932 109.345 33.8203C109.743 33.2409 110.221 32.7754 110.781 32.4238C111.341 32.0723 111.992 31.8965 112.734 31.8965C113.366 31.8965 113.903 32.0397 114.345 32.3262C114.795 32.6126 115.136 33.0228 115.371 33.5566C115.612 34.084 115.732 34.7188 115.732 35.4609C115.732 36.099 115.67 36.7728 115.547 37.4824C115.429 38.1921 115.244 38.8854 114.99 39.5625C114.736 40.2396 114.41 40.8516 114.013 41.3984C113.623 41.9453 113.154 42.3815 112.607 42.707C112.06 43.0326 111.435 43.1953 110.732 43.1953ZM111.015 41.1641C111.295 41.1641 111.556 41.0339 111.797 40.7734C112.037 40.513 112.249 40.168 112.431 39.7383C112.62 39.3086 112.78 38.8398 112.91 38.332C113.04 37.8177 113.138 37.3099 113.203 36.8086C113.274 36.3008 113.31 35.8451 113.31 35.4414C113.31 35.1224 113.278 34.8522 113.213 34.6309C113.154 34.403 113.056 34.2305 112.92 34.1133C112.789 33.9961 112.62 33.9375 112.412 33.9375C112.112 33.9375 111.839 34.0742 111.591 34.3477C111.351 34.6211 111.136 34.9792 110.947 35.4219C110.765 35.8646 110.612 36.3464 110.488 36.8672C110.364 37.3815 110.27 37.8861 110.205 38.3809C110.146 38.8757 110.117 39.3086 110.117 39.6797C110.117 40.1484 110.192 40.513 110.341 40.7734C110.491 41.0339 110.716 41.1641 111.015 41.1641ZM119.619 43.1953C118.981 43.1953 118.434 43.0553 117.978 42.7754C117.529 42.4954 117.184 42.0918 116.943 41.5645C116.702 41.0371 116.582 40.4023 116.582 39.6602C116.582 39.0938 116.637 38.4688 116.748 37.7852C116.865 37.0951 117.044 36.4049 117.285 35.7148C117.526 35.0247 117.841 34.3932 118.232 33.8203C118.629 33.2409 119.108 32.7754 119.668 32.4238C120.228 32.0723 120.879 31.8965 121.621 31.8965C122.252 31.8965 122.789 32.0397 123.232 32.3262C123.681 32.6126 124.023 33.0228 124.257 33.5566C124.498 34.084 124.619 34.7188 124.619 35.4609C124.619 36.099 124.557 36.7728 124.433 37.4824C124.316 38.1921 124.131 38.8854 123.877 39.5625C123.623 40.2396 123.297 40.8516 122.9 41.3984C122.509 41.9453 122.041 42.3815 121.494 42.707C120.947 43.0326 120.322 43.1953 119.619 43.1953ZM119.902 41.1641C120.182 41.1641 120.442 41.0339 120.683 40.7734C120.924 40.513 121.136 40.168 121.318 39.7383C121.507 39.3086 121.666 38.8398 121.797 38.332C121.927 37.8177 122.024 37.3099 122.09 36.8086C122.161 36.3008 122.197 35.8451 122.197 35.4414C122.197 35.1224 122.164 34.8522 122.099 34.6309C122.041 34.403 121.943 34.2305 121.806 34.1133C121.676 33.9961 121.507 33.9375 121.299 33.9375C120.999 33.9375 120.726 34.0742 120.478 34.3477C120.237 34.6211 120.022 34.9792 119.834 35.4219C119.651 35.8646 119.498 36.3464 119.375 36.8672C119.251 37.3815 119.157 37.8861 119.091 38.3809C119.033 38.8757 119.004 39.3086 119.004 39.6797C119.004 40.1484 119.078 40.513 119.228 40.7734C119.378 41.0339 119.603 41.1641 119.902 41.1641ZM127.607 43.1953C127.158 43.1953 126.771 43.0716 126.445 42.8242C126.119 42.5703 125.869 42.209 125.693 41.7402C125.517 41.265 125.429 40.6986 125.429 40.041C125.429 39.4746 125.485 38.8366 125.595 38.127C125.706 37.4108 125.872 36.6882 126.093 35.959C126.315 35.2298 126.591 34.5592 126.924 33.9473C127.262 33.3353 127.656 32.8405 128.105 32.4629C128.561 32.0853 129.075 31.8965 129.648 31.8965C129.954 31.8965 130.237 31.9453 130.498 32.043C130.765 32.1406 130.999 32.2904 131.201 32.4922C131.403 32.694 131.559 32.9512 131.67 33.2637H131.728C131.761 33.0228 131.793 32.7917 131.826 32.5703C131.865 32.3424 131.901 32.1309 131.933 31.9355C131.966 31.7402 131.998 31.5677 132.031 31.418L132.812 27.8047H135.205L131.972 43H130.029L130.049 41.7012H129.99C129.736 42.0202 129.492 42.2904 129.257 42.5117C129.023 42.7331 128.776 42.9023 128.515 43.0195C128.255 43.1367 127.952 43.1953 127.607 43.1953ZM128.632 41.1641C128.906 41.1641 129.153 41.0599 129.375 40.8516C129.603 40.6432 129.804 40.3665 129.98 40.0215C130.162 39.6699 130.319 39.2826 130.449 38.8594C130.586 38.4362 130.696 38.0065 130.781 37.5703C130.872 37.1276 130.937 36.7109 130.976 36.3203C131.022 35.9297 131.045 35.5977 131.045 35.3242C131.045 34.8815 130.976 34.5495 130.84 34.3281C130.703 34.1068 130.491 33.9961 130.205 33.9961C129.905 33.9961 129.635 34.1426 129.394 34.4355C129.153 34.722 128.938 35.0964 128.75 35.5586C128.567 36.0143 128.411 36.5059 128.281 37.0332C128.157 37.554 128.063 38.0553 127.998 38.5371C127.939 39.0189 127.91 39.4193 127.91 39.7383C127.91 40.207 127.968 40.5618 128.086 40.8027C128.209 41.0436 128.392 41.1641 128.632 41.1641ZM87.7926 63L90.8102 48.7227H93.6325C94.9932 48.7227 96.0283 49.1035 96.738 49.8652C97.4541 50.6204 97.8122 51.6979 97.8122 53.0977C97.8122 53.9766 97.7275 54.8815 97.5583 55.8125C97.3955 56.737 97.1384 57.6289 96.7868 58.4883C96.4352 59.3411 95.986 60.1094 95.4391 60.793C94.8923 61.4701 94.2347 62.0072 93.4665 62.4043C92.7048 62.8014 91.8259 63 90.8298 63H87.7926ZM90.7516 60.7637H91.1911C91.764 60.7637 92.2686 60.5977 92.7048 60.2656C93.141 59.9336 93.5153 59.4941 93.8278 58.9473C94.1403 58.3939 94.3942 57.7884 94.5895 57.1309C94.7913 56.4733 94.9378 55.8158 95.029 55.1582C95.1266 54.4941 95.1755 53.8887 95.1755 53.3418C95.1755 52.5085 95.0257 51.8997 94.7262 51.5156C94.4268 51.1315 93.9808 50.9395 93.3884 50.9395H92.8317L90.7516 60.7637ZM101.572 63.1953C100.908 63.1953 100.335 63.0586 99.8532 62.7852C99.3714 62.5052 99.0003 62.1048 98.7399 61.584C98.4795 61.0566 98.3493 60.4284 98.3493 59.6992C98.3493 58.7357 98.46 57.7917 98.6813 56.8672C98.9027 55.9427 99.2282 55.1094 99.6579 54.3672C100.088 53.6185 100.621 53.0228 101.259 52.5801C101.904 52.1374 102.646 51.916 103.486 51.916C104.287 51.916 104.935 52.1406 105.429 52.5898C105.924 53.0391 106.172 53.6641 106.172 54.4648C106.172 55.0964 106.051 55.6562 105.81 56.1445C105.569 56.6263 105.221 57.0299 104.765 57.3555C104.31 57.681 103.763 57.9284 103.125 58.0977C102.493 58.2604 101.78 58.3418 100.986 58.3418H100.83C100.791 58.5241 100.761 58.7096 100.742 58.8984C100.722 59.0807 100.713 59.2598 100.713 59.4355C100.713 60.0801 100.833 60.5423 101.074 60.8223C101.315 61.1022 101.673 61.2422 102.148 61.2422C102.571 61.2422 102.959 61.1901 103.31 61.0859C103.662 60.9753 104.075 60.7865 104.55 60.5195V62.3848C104.075 62.6908 103.59 62.9023 103.095 63.0195C102.607 63.1367 102.099 63.1953 101.572 63.1953ZM101.172 56.6035H101.23C101.914 56.6035 102.451 56.5221 102.841 56.3594C103.239 56.1901 103.522 55.959 103.691 55.666C103.86 55.373 103.945 55.0443 103.945 54.6797C103.945 54.4193 103.877 54.2109 103.74 54.0547C103.61 53.8984 103.414 53.8203 103.154 53.8203C102.887 53.8203 102.63 53.931 102.382 54.1523C102.135 54.3737 101.907 54.6927 101.699 55.1094C101.497 55.5195 101.321 56.0176 101.172 56.6035ZM106.23 63L109.463 47.8047H111.865L108.623 63H106.23ZM110.683 63L112.998 52.1016H115.381L113.076 63H110.683ZM114.56 50.6758C114.183 50.6758 113.896 50.5911 113.701 50.4219C113.512 50.2526 113.418 49.9987 113.418 49.6602C113.418 49.3802 113.473 49.1035 113.584 48.8301C113.701 48.5501 113.877 48.319 114.111 48.1367C114.352 47.9544 114.655 47.8633 115.019 47.8633C115.384 47.8633 115.664 47.9447 115.859 48.1074C116.061 48.2637 116.162 48.5143 116.162 48.8594C116.162 49.3542 116.015 49.7806 115.722 50.1387C115.429 50.4967 115.042 50.6758 114.56 50.6758ZM116.797 63L116.474 52.1016H118.877L118.838 57.2188C118.838 57.4401 118.834 57.6875 118.828 57.9609C118.821 58.2279 118.808 58.4948 118.789 58.7617C118.776 59.0286 118.756 59.2695 118.73 59.4844H118.808C118.86 59.3086 118.916 59.1361 118.974 58.9668C119.033 58.791 119.095 58.6185 119.16 58.4492C119.231 58.2799 119.297 58.1172 119.355 57.9609L121.797 52.1016H124.316L119.375 63H116.797ZM126.904 63.1953C126.24 63.1953 125.667 63.0586 125.185 62.7852C124.703 62.5052 124.332 62.1048 124.072 61.584C123.812 61.0566 123.681 60.4284 123.681 59.6992C123.681 58.7357 123.792 57.7917 124.013 56.8672C124.235 55.9427 124.56 55.1094 124.99 54.3672C125.42 53.6185 125.953 53.0228 126.591 52.5801C127.236 52.1374 127.978 51.916 128.818 51.916C129.619 51.916 130.267 52.1406 130.761 52.5898C131.256 53.0391 131.504 53.6641 131.504 54.4648C131.504 55.0964 131.383 55.6562 131.142 56.1445C130.901 56.6263 130.553 57.0299 130.097 57.3555C129.642 57.681 129.095 57.9284 128.457 58.0977C127.825 58.2604 127.112 58.3418 126.318 58.3418H126.162C126.123 58.5241 126.093 58.7096 126.074 58.8984C126.054 59.0807 126.045 59.2598 126.045 59.4355C126.045 60.0801 126.165 60.5423 126.406 60.8223C126.647 61.1022 127.005 61.2422 127.48 61.2422C127.903 61.2422 128.291 61.1901 128.642 61.0859C128.994 60.9753 129.407 60.7865 129.882 60.5195V62.3848C129.407 62.6908 128.922 62.9023 128.427 63.0195C127.939 63.1367 127.431 63.1953 126.904 63.1953ZM126.504 56.6035H126.562C127.246 56.6035 127.783 56.5221 128.174 56.3594C128.571 56.1901 128.854 55.959 129.023 55.666C129.192 55.373 129.277 55.0443 129.277 54.6797C129.277 54.4193 129.209 54.2109 129.072 54.0547C128.942 53.8984 128.746 53.8203 128.486 53.8203C128.219 53.8203 127.962 53.931 127.715 54.1523C127.467 54.3737 127.239 54.6927 127.031 55.1094C126.829 55.5195 126.653 56.0176 126.504 56.6035ZM131.562 63L133.877 52.1016H135.761L135.615 53.7812H135.703C135.924 53.3451 136.152 52.9902 136.386 52.7168C136.627 52.4368 136.891 52.2318 137.177 52.1016C137.47 51.9648 137.799 51.8965 138.164 51.8965C138.294 51.8965 138.421 51.9095 138.545 51.9355C138.675 51.9551 138.818 51.9909 138.974 52.043L138.261 54.6406C138.131 54.5885 137.994 54.5495 137.851 54.5234C137.708 54.4974 137.558 54.4844 137.402 54.4844C137.09 54.4844 136.81 54.569 136.562 54.7383C136.315 54.9076 136.097 55.1322 135.908 55.4121C135.726 55.6921 135.569 56.0078 135.439 56.3594C135.315 56.7044 135.215 57.0592 135.136 57.4238L133.955 63H131.562ZM137.783 67.8047C137.516 67.8047 137.275 67.7884 137.06 67.7559C136.845 67.7233 136.653 67.6777 136.484 67.6191L136.884 65.4609C137.034 65.5195 137.181 65.5618 137.324 65.5879C137.467 65.6204 137.601 65.6367 137.724 65.6367C138.056 65.6367 138.32 65.526 138.515 65.3047C138.711 65.0833 138.903 64.7676 139.091 64.3574L139.765 62.8633L139.287 52.1016H141.709L141.728 57.2383C141.728 57.4661 141.725 57.6973 141.718 57.9316C141.718 58.166 141.712 58.4004 141.699 58.6348C141.692 58.8691 141.683 59.1035 141.67 59.3379H141.728C141.8 59.0905 141.875 58.8398 141.953 58.5859C142.037 58.332 142.119 58.0944 142.197 57.873C142.282 57.6517 142.353 57.4661 142.412 57.3164L144.609 52.1016H147.129L141.425 64.6406C141.139 65.2591 140.836 65.806 140.517 66.2812C140.198 66.7565 139.821 67.1276 139.384 67.3945C138.955 67.668 138.421 67.8047 137.783 67.8047Z" fill="black"/>
<defs>
<linearGradient id="paint0_linear_412_92" x1="28.0988" y1="28.2801" x2="62.6772" y2="61.2294" gradientUnits="userSpaceOnUse">
<stop stop-color="#FEB220"/>
<stop offset="1" stop-color="#D84719"/>
</linearGradient>
<linearGradient id="paint1_linear_412_92" x1="27.7326" y1="29.9787" x2="60.2423" y2="58.5871" gradientUnits="userSpaceOnUse">
<stop stop-color="#FEB220"/>
<stop offset="1" stop-color="#F56C1E"/>
</linearGradient>
</defs>
</svg>
